<svg width="16" height="16" viewBox="0 0 16 16" fill="none" xmlns="http://www.w3.org/2000/svg">
<path fill-rule="evenodd" clip-rule="evenodd" d="M8.00002 0.666687C3.95002 0.666687 0.666687 3.95002 0.666687 8.00002C0.666687 12.05 3.95002 15.3334 8.00002 15.3334C12.05 15.3334 15.3334 12.05 15.3334 8.00002C15.3334 3.95002 12.05 0.666687 8.00002 0.666687ZM8.66669 10.6667C8.66669 10.8435 8.59645 11.0131 8.47142 11.1381C8.3464 11.2631 8.17683 11.3334 8.00002 11.3334C7.82321 11.3334 7.65364 11.2631 7.52862 11.1381C7.40359 11.0131 7.33335 10.8435 7.33335 10.6667V8.66669H5.33335C5.15654 8.66669 4.98697 8.59645 4.86195 8.47143C4.73692 8.3464 4.66669 8.17683 4.66669 8.00002C4.66669 7.82321 4.73692 7.65364 4.86195 7.52862C4.98697 7.40359 5.15654 7.33335 5.33335 7.33335H7.33335V5.33335C7.33335 5.15654 7.40359 4.98697 7.52862 4.86195C7.65364 4.73693 7.82321 4.66669 8.00002 4.66669C8.17683 4.66669 8.3464 4.73693 8.47142 4.86195C8.59645 4.98697 8.66669 5.15654 8.66669 5.33335V7.33335H10.6667C10.8435 7.33335 11.0131 7.40359 11.1381 7.52862C11.2631 7.65364 11.3334 7.82321 11.3334 8.00002C11.3334 8.17683 11.2631 8.3464 11.1381 8.47143C11.0131 8.59645 10.8435 8.66669 10.6667 8.66669H8.66669V10.6667Z" fill="black"/>
</svg>
